<svg xmlns="http://www.w3.org/2000/svg" viewBox="0 0 200 126.18"><defs><style>.cls-1{fill:#4643d3;}.cls-2{fill:#f47500;}</style></defs><title>Asset 1</title><g id="Layer_2" data-name="Layer 2"><g id="Layer_1-2" data-name="Layer 1"><path class="cls-1" d="M147.06,57.35C142.35,7.35,101.76.88,89.12,0H21.18A21.24,21.24,0,0,0,0,21.18V105a21.24,21.24,0,0,0,21.18,21.18H178.82c.27,0,.53,0,.8,0C157,118,152.46,104.41,147.06,57.35Z"/><path class="cls-2" d="M200,105V21.18A21.24,21.24,0,0,0,178.82,0H89.12c12.64.88,53.23,7.35,57.94,57.35,5.4,47.06,9.9,60.62,32.56,68.79A21.23,21.23,0,0,0,200,105Z"/></g></g></svg>